<svg width="153" height="24" viewBox="0 0 153 24" fill="none" xmlns="http://www.w3.org/2000/svg">
<path d="M39.72 22.336C38.472 22.336 37.304 22.152 36.216 21.784C35.128 21.4 34.168 20.864 33.336 20.176C32.504 19.472 31.856 18.632 31.392 17.656C30.928 16.68 30.696 15.6 30.696 14.416C30.696 13.312 30.912 12.264 31.344 11.272C31.792 10.264 32.44 9.376 33.288 8.608C34.136 7.824 35.152 7.208 36.336 6.76C37.536 6.296 38.888 6.064 40.392 6.064C40.904 6.064 41.416 6.104 41.928 6.184C42.456 6.248 42.96 6.344 43.44 6.472C43.936 6.6 44.384 6.736 44.784 6.88C44.928 6.944 45.048 7.032 45.144 7.144C45.256 7.24 45.32 7.384 45.336 7.576C45.4 8.104 45.448 8.616 45.48 9.112C45.512 9.608 45.528 10.056 45.528 10.456C45.528 10.632 45.464 10.752 45.336 10.816C45.208 10.88 45.064 10.888 44.904 10.84C44.76 10.776 44.656 10.648 44.592 10.456C44.48 10.088 44.344 9.72 44.184 9.352C44.04 8.984 43.816 8.664 43.512 8.392C43.192 8.072 42.744 7.808 42.168 7.6C41.608 7.392 40.928 7.288 40.128 7.288C39.312 7.288 38.568 7.464 37.896 7.816C37.24 8.168 36.672 8.648 36.192 9.256C35.728 9.864 35.368 10.552 35.112 11.32C34.856 12.088 34.728 12.888 34.728 13.72C34.728 14.776 34.84 15.76 35.064 16.672C35.288 17.568 35.632 18.344 36.096 19C36.56 19.656 37.128 20.168 37.8 20.536C38.472 20.904 39.264 21.088 40.176 21.088C41.36 21.088 42.32 20.84 43.056 20.344C43.792 19.832 44.408 19.056 44.904 18.016C45.032 17.728 45.208 17.592 45.432 17.608C45.672 17.624 45.792 17.76 45.792 18.016C45.792 18.224 45.768 18.48 45.72 18.784C45.688 19.072 45.632 19.384 45.552 19.72C45.472 20.056 45.376 20.4 45.264 20.752C45.2 20.944 45.112 21.096 45 21.208C44.904 21.304 44.776 21.392 44.616 21.472C44.008 21.728 43.288 21.936 42.456 22.096C41.624 22.256 40.712 22.336 39.72 22.336Z" fill="#1D1F2C"/>
<path d="M52.7036 22.336C51.7436 22.336 50.8796 22.12 50.1116 21.688C49.3436 21.256 48.7276 20.664 48.2636 19.912C47.8156 19.144 47.5916 18.28 47.5916 17.32C47.5916 16.552 47.7356 15.824 48.0236 15.136C48.3116 14.448 48.7116 13.84 49.2236 13.312C49.7356 12.784 50.3356 12.368 51.0236 12.064C51.7116 11.76 52.4476 11.608 53.2316 11.608C54.2236 11.608 55.1196 11.84 55.9196 12.304C56.7196 12.768 57.3516 13.384 57.8156 14.152C58.2956 14.904 58.5356 15.728 58.5356 16.624C58.5356 17.648 58.3116 18.6 57.8636 19.48C57.4316 20.344 56.7836 21.04 55.9196 21.568C55.0716 22.08 53.9996 22.336 52.7036 22.336ZM53.1836 21.28C53.5196 21.28 53.8076 21.216 54.0476 21.088C54.3036 20.944 54.5116 20.736 54.6716 20.464C54.8636 20.144 54.9916 19.712 55.0556 19.168C55.1356 18.608 55.1756 17.952 55.1756 17.2C55.1756 16.336 55.0796 15.568 54.8876 14.896C54.6956 14.208 54.4236 13.664 54.0716 13.264C53.7356 12.864 53.3356 12.664 52.8716 12.664C52.6156 12.664 52.3836 12.712 52.1756 12.808C51.9676 12.888 51.7836 13.008 51.6236 13.168C51.3516 13.488 51.1596 13.944 51.0476 14.536C50.9516 15.128 50.9036 15.856 50.9036 16.72C50.9036 17.488 50.9996 18.224 51.1916 18.928C51.3996 19.616 51.6716 20.184 52.0076 20.632C52.3596 21.064 52.7516 21.28 53.1836 21.28Z" fill="#1D1F2C"/>
<path d="M60.0699 22.072C59.9579 22.072 59.8459 22.048 59.7339 22C59.6379 21.936 59.5899 21.848 59.5899 21.736C59.5899 21.608 59.6459 21.512 59.7579 21.448C59.8699 21.368 59.9979 21.304 60.1419 21.256C60.3819 21.176 60.5899 21.08 60.7659 20.968C60.9579 20.856 61.0539 20.64 61.0539 20.32V13.48C60.8939 13.48 60.7099 13.48 60.5019 13.48C60.2939 13.464 60.0619 13.448 59.8059 13.432C59.7099 13.416 59.6299 13.328 59.5659 13.168C59.5019 12.992 59.4699 12.848 59.4699 12.736C59.4699 12.672 59.4939 12.624 59.5419 12.592C59.5899 12.544 59.6379 12.512 59.6859 12.496C59.9099 12.416 60.1339 12.336 60.3579 12.256C60.5979 12.176 60.8299 12.072 61.0539 11.944C61.1179 10.84 61.3579 9.904 61.7739 9.136C62.1899 8.368 62.7019 7.744 63.3099 7.264C63.9339 6.784 64.5899 6.432 65.2779 6.208C65.9659 5.984 66.6139 5.872 67.2219 5.872C68.2779 5.872 69.1019 6.04 69.6939 6.376C70.3019 6.696 70.6059 7.096 70.6059 7.576C70.6059 7.928 70.4699 8.248 70.1979 8.536C69.9419 8.824 69.6619 8.968 69.3579 8.968C69.2139 8.968 69.0779 8.904 68.9499 8.776C68.8219 8.632 68.6779 8.456 68.5179 8.248C68.3099 7.992 68.0379 7.744 67.7019 7.504C67.3659 7.264 66.9179 7.144 66.3579 7.144C65.7339 7.144 65.2139 7.464 64.7979 8.104C64.3979 8.728 64.1979 9.696 64.1979 11.008V11.416C64.1979 11.624 64.2539 11.768 64.3659 11.848C64.4939 11.912 64.6379 11.944 64.7979 11.944H69.3819C69.4459 11.944 69.4779 12.032 69.4779 12.208C69.4779 12.352 69.4619 12.528 69.4299 12.736C69.3979 12.928 69.3579 13.104 69.3099 13.264C69.2779 13.408 69.2299 13.48 69.1659 13.48H65.1579C64.7259 13.48 64.4539 13.544 64.3419 13.672C64.2459 13.784 64.1979 13.904 64.1979 14.032V20.224C64.1979 20.544 64.3179 20.776 64.5579 20.92C64.7979 21.064 65.0939 21.176 65.4459 21.256C65.5899 21.288 65.7019 21.344 65.7819 21.424C65.8779 21.504 65.9259 21.608 65.9259 21.736C65.9259 21.832 65.8859 21.912 65.8059 21.976C65.7259 22.04 65.6299 22.072 65.5179 22.072C65.1979 22.072 64.8699 22.056 64.5339 22.024C64.2139 22.008 63.8939 21.992 63.5739 21.976C63.2699 21.96 62.9739 21.952 62.6859 21.952C62.4139 21.952 62.1339 21.96 61.8459 21.976C61.5739 21.992 61.2859 22.008 60.9819 22.024C60.6939 22.056 60.3899 22.072 60.0699 22.072ZM67.3419 22.072C67.2459 22.072 67.1419 22.048 67.0299 22C66.9179 21.936 66.8619 21.848 66.8619 21.736C66.8619 21.608 66.9019 21.512 66.9819 21.448C67.0779 21.368 67.1899 21.304 67.3179 21.256C67.7659 21.128 68.0459 21.008 68.1579 20.896C68.2859 20.768 68.3499 20.576 68.3499 20.32V13.48C68.1899 13.48 68.0059 13.48 67.7979 13.48C67.5899 13.464 67.3579 13.448 67.1019 13.432C67.0059 13.416 66.9259 13.328 66.8619 13.168C66.7979 12.992 66.7659 12.848 66.7659 12.736C66.7659 12.672 66.7899 12.624 66.8379 12.592C66.8859 12.544 66.9339 12.512 66.9819 12.496C67.1899 12.416 67.4059 12.328 67.6299 12.232C67.8539 12.136 68.0939 12.032 68.3499 11.92C68.4139 10.624 68.6539 9.536 69.0699 8.656C69.4859 7.776 69.9979 7.072 70.6059 6.544C71.2299 6.016 71.8859 5.64 72.5739 5.416C73.2619 5.176 73.9019 5.056 74.4939 5.056C75.5979 5.056 76.3899 5.208 76.8699 5.512C77.3659 5.816 77.6139 6.288 77.6139 6.928C77.6139 7.296 77.5259 7.592 77.3499 7.816C77.1899 8.024 76.9579 8.128 76.6539 8.128C76.5099 8.128 76.3659 8.064 76.2219 7.936C76.0939 7.808 75.9499 7.648 75.7899 7.456C75.5179 7.152 75.1979 6.864 74.8299 6.592C74.4619 6.304 74.0139 6.16 73.4859 6.16C72.8459 6.16 72.3499 6.44 71.9979 7C71.6619 7.544 71.4939 8.424 71.4939 9.64V11.608C71.4939 11.736 71.5339 11.824 71.6139 11.872C71.6939 11.92 71.7819 11.944 71.8779 11.944H74.5899C74.7179 11.944 74.8139 11.984 74.8779 12.064C74.9419 12.144 74.9739 12.232 74.9739 12.328C74.9739 12.472 74.9499 12.624 74.9019 12.784C74.8699 12.944 74.8219 13.08 74.7579 13.192C74.6939 13.32 74.6299 13.384 74.5659 13.384H72.3579C72.0059 13.384 71.7739 13.424 71.6619 13.504C71.5499 13.584 71.4939 13.72 71.4939 13.912V19.912C71.4939 20.328 71.5899 20.624 71.7819 20.8C71.9739 20.96 72.3979 21.112 73.0539 21.256C73.3739 21.304 73.5339 21.448 73.5339 21.688C73.5339 21.784 73.4939 21.872 73.4139 21.952C73.3339 22.032 73.2379 22.072 73.1259 22.072C72.6459 22.072 72.1019 22.048 71.4939 22C70.9019 21.968 70.3979 21.952 69.9819 21.952C69.7099 21.952 69.4299 21.96 69.1419 21.976C68.8699 21.992 68.5819 22.008 68.2779 22.024C67.9739 22.056 67.6619 22.072 67.3419 22.072Z" fill="#1D1F2C"/>
<path d="M79.4781 22.336C78.6141 22.336 77.8381 22.112 77.1501 21.664C76.4781 21.2 75.9421 20.576 75.5421 19.792C75.1581 18.992 74.9661 18.088 74.9661 17.08C74.9661 16.072 75.1981 15.16 75.6621 14.344C76.1261 13.512 76.7581 12.856 77.5581 12.376C78.3581 11.88 79.2381 11.632 80.1981 11.632C80.8861 11.632 81.5021 11.784 82.0461 12.088C82.5901 12.376 83.0221 12.768 83.3421 13.264C83.6781 13.76 83.8461 14.32 83.8461 14.944C83.8461 15.552 83.5981 15.856 83.1021 15.856H78.3021C78.0781 15.856 77.9101 15.92 77.7981 16.048C77.7021 16.176 77.6541 16.392 77.6541 16.696C77.6541 17.304 77.7901 17.864 78.0621 18.376C78.3341 18.872 78.7021 19.264 79.1661 19.552C79.6301 19.84 80.1661 19.984 80.7741 19.984C81.2381 19.984 81.6621 19.896 82.0461 19.72C82.4461 19.544 82.8381 19.304 83.2221 19C83.2861 18.952 83.3421 18.912 83.3901 18.88C83.4541 18.832 83.5101 18.808 83.5581 18.808C83.7181 18.808 83.7981 18.912 83.7981 19.12C83.7981 19.296 83.7341 19.536 83.6061 19.84C83.4461 20.24 83.1741 20.64 82.7901 21.04C82.4221 21.424 81.9581 21.736 81.3981 21.976C80.8381 22.216 80.1981 22.336 79.4781 22.336ZM78.3021 14.848H79.7421C80.1901 14.848 80.5021 14.84 80.6781 14.824C80.8541 14.808 81.0141 14.776 81.1581 14.728C81.2381 14.696 81.3021 14.616 81.3501 14.488C81.3981 14.36 81.4221 14.216 81.4221 14.056C81.4221 13.624 81.2701 13.272 80.9661 13C80.6781 12.728 80.3181 12.592 79.8861 12.592C79.5501 12.592 79.2301 12.688 78.9261 12.88C78.6381 13.056 78.3981 13.296 78.2061 13.6C78.0301 13.888 77.9501 14.192 77.9661 14.512C77.9661 14.736 78.0781 14.848 78.3021 14.848Z" fill="#1D1F2C"/>
<path d="M89.439 22.336C88.575 22.336 87.799 22.112 87.111 21.664C86.439 21.2 85.903 20.576 85.503 19.792C85.119 18.992 84.927 18.088 84.927 17.08C84.927 16.072 85.159 15.16 85.623 14.344C86.087 13.512 86.719 12.856 87.519 12.376C88.319 11.88 89.199 11.632 90.159 11.632C90.847 11.632 91.463 11.784 92.007 12.088C92.551 12.376 92.983 12.768 93.303 13.264C93.639 13.76 93.807 14.32 93.807 14.944C93.807 15.552 93.559 15.856 93.063 15.856H88.263C88.039 15.856 87.871 15.92 87.759 16.048C87.663 16.176 87.615 16.392 87.615 16.696C87.615 17.304 87.751 17.864 88.023 18.376C88.295 18.872 88.663 19.264 89.127 19.552C89.591 19.84 90.127 19.984 90.735 19.984C91.199 19.984 91.623 19.896 92.007 19.72C92.407 19.544 92.799 19.304 93.183 19C93.247 18.952 93.303 18.912 93.351 18.88C93.415 18.832 93.471 18.808 93.519 18.808C93.679 18.808 93.759 18.912 93.759 19.12C93.759 19.296 93.695 19.536 93.567 19.84C93.407 20.24 93.135 20.64 92.751 21.04C92.383 21.424 91.919 21.736 91.359 21.976C90.799 22.216 90.159 22.336 89.439 22.336ZM88.263 14.848H89.703C90.151 14.848 90.463 14.84 90.639 14.824C90.815 14.808 90.975 14.776 91.119 14.728C91.199 14.696 91.263 14.616 91.311 14.488C91.359 14.36 91.383 14.216 91.383 14.056C91.383 13.624 91.231 13.272 90.927 13C90.639 12.728 90.279 12.592 89.847 12.592C89.511 12.592 89.191 12.688 88.887 12.88C88.599 13.056 88.359 13.296 88.167 13.6C87.991 13.888 87.911 14.192 87.927 14.512C87.927 14.736 88.039 14.848 88.263 14.848Z" fill="#1D1F2C"/>
<path d="M95.2708 22.12C95.1268 22.12 95.0068 22.08 94.9108 22C94.8308 21.936 94.7908 21.856 94.7908 21.76C94.7908 21.52 94.9668 21.352 95.3188 21.256C95.8628 21.112 96.2468 20.944 96.4708 20.752C96.7108 20.56 96.8308 20.208 96.8308 19.696V8.776C96.8308 8.264 96.7268 7.896 96.5188 7.672C96.3108 7.432 95.9268 7.256 95.3668 7.144C95.1588 7.096 95.0148 7.032 94.9348 6.952C94.8548 6.856 94.8148 6.752 94.8148 6.64C94.8148 6.544 94.8628 6.464 94.9588 6.4C95.0548 6.32 95.1748 6.28 95.3188 6.28C95.8308 6.28 96.2548 6.296 96.5908 6.328C96.9268 6.36 97.2388 6.392 97.5268 6.424C97.8308 6.44 98.1828 6.448 98.5828 6.448C98.9508 6.448 99.2868 6.432 99.5908 6.4C99.8948 6.352 100.231 6.312 100.599 6.28C100.983 6.248 101.447 6.232 101.991 6.232C103.895 6.232 105.335 6.504 106.311 7.048C107.303 7.576 107.799 8.496 107.799 9.808C107.799 10.304 107.687 10.776 107.463 11.224C107.239 11.656 106.951 12.016 106.599 12.304C106.343 12.528 106.071 12.712 105.783 12.856C105.511 13 105.199 13.12 104.847 13.216C104.783 13.232 104.751 13.272 104.751 13.336C104.751 13.4 104.783 13.44 104.847 13.456C105.263 13.552 105.695 13.68 106.143 13.84C106.591 13.984 107.007 14.2 107.391 14.488C107.791 14.776 108.103 15.152 108.327 15.616C108.567 16.064 108.687 16.64 108.687 17.344C108.687 18.24 108.543 18.952 108.255 19.48C107.983 19.992 107.647 20.384 107.247 20.656C106.863 20.928 106.503 21.152 106.167 21.328C105.639 21.584 105.039 21.776 104.367 21.904C103.695 22.032 102.895 22.096 101.967 22.096C101.439 22.096 100.903 22.08 100.359 22.048C99.8308 22.016 99.2708 22 98.6788 22C98.3428 22 97.9748 22.008 97.5748 22.024C97.1748 22.04 96.7748 22.056 96.3748 22.072C95.9908 22.104 95.6228 22.12 95.2708 22.12ZM101.991 20.776C102.471 20.776 102.919 20.632 103.335 20.344C103.767 20.056 104.103 19.672 104.343 19.192C104.599 18.696 104.727 18.136 104.727 17.512C104.727 16.968 104.655 16.512 104.511 16.144C104.383 15.776 104.223 15.48 104.031 15.256C103.855 15.032 103.687 14.864 103.527 14.752C103.399 14.64 103.167 14.528 102.831 14.416C102.511 14.288 102.111 14.224 101.631 14.224C101.359 14.224 101.103 14.296 100.863 14.44C100.639 14.568 100.527 14.76 100.527 15.016V19.24C100.527 19.768 100.655 20.16 100.911 20.416C101.167 20.656 101.527 20.776 101.991 20.776ZM101.487 13.144C101.871 13.144 102.223 13.104 102.543 13.024C102.863 12.928 103.191 12.752 103.527 12.496C103.639 12.384 103.791 12.16 103.983 11.824C104.191 11.472 104.295 10.968 104.295 10.312C104.295 9.64 104.207 9.08 104.031 8.632C103.855 8.184 103.583 7.848 103.215 7.624C102.863 7.4 102.391 7.288 101.799 7.288C101.351 7.288 101.023 7.376 100.815 7.552C100.623 7.712 100.527 7.96 100.527 8.296V12.304C100.527 12.624 100.639 12.848 100.863 12.976C101.087 13.088 101.295 13.144 101.487 13.144Z" fill="#1D1F2C"/>
<path d="M110.414 22.072C110.286 22.072 110.174 22.048 110.078 22C109.982 21.936 109.934 21.848 109.934 21.736C109.934 21.608 109.982 21.512 110.078 21.448C110.174 21.368 110.31 21.304 110.486 21.256C110.838 21.144 111.07 21.024 111.182 20.896C111.31 20.768 111.374 20.584 111.374 20.344V14.824C111.374 14.488 111.326 14.216 111.23 14.008C111.15 13.784 110.958 13.632 110.654 13.552C110.574 13.52 110.502 13.48 110.438 13.432C110.374 13.368 110.342 13.264 110.342 13.12C110.342 12.896 110.438 12.76 110.63 12.712C111.142 12.584 111.702 12.416 112.31 12.208C112.934 12 113.462 11.792 113.894 11.584C113.974 11.52 114.07 11.464 114.182 11.416C114.31 11.352 114.398 11.32 114.446 11.32C114.59 11.32 114.662 11.408 114.662 11.584C114.662 11.664 114.654 11.832 114.638 12.088C114.638 12.328 114.63 12.576 114.614 12.832C114.614 13.088 114.606 13.304 114.59 13.48C114.59 13.624 114.622 13.696 114.686 13.696C114.926 13.36 115.206 13.032 115.526 12.712C115.862 12.392 116.222 12.128 116.606 11.92C116.99 11.712 117.366 11.608 117.734 11.608C118.294 11.608 118.686 11.712 118.91 11.92C119.15 12.128 119.27 12.4 119.27 12.736C119.27 12.976 119.198 13.24 119.054 13.528C118.926 13.816 118.758 14.064 118.55 14.272C118.342 14.48 118.118 14.584 117.878 14.584C117.734 14.584 117.582 14.552 117.422 14.488C117.262 14.408 117.102 14.328 116.942 14.248C116.782 14.184 116.622 14.12 116.462 14.056C116.318 13.976 116.182 13.936 116.054 13.936C115.638 13.936 115.278 14.088 114.974 14.392C114.67 14.696 114.518 15.304 114.518 16.216V20.128C114.518 20.448 114.614 20.688 114.806 20.848C115.014 20.992 115.342 21.128 115.79 21.256C115.966 21.304 116.094 21.368 116.174 21.448C116.27 21.512 116.318 21.608 116.318 21.736C116.318 21.96 116.182 22.072 115.91 22.072C115.43 22.072 114.934 22.048 114.422 22C113.91 21.968 113.446 21.952 113.03 21.952C112.758 21.952 112.478 21.96 112.19 21.976C111.918 21.992 111.63 22.008 111.326 22.024C111.038 22.056 110.734 22.072 110.414 22.072Z" fill="#1D1F2C"/>
<path d="M124.103 22.336C123.239 22.336 122.463 22.112 121.775 21.664C121.103 21.2 120.567 20.576 120.167 19.792C119.783 18.992 119.591 18.088 119.591 17.08C119.591 16.072 119.823 15.16 120.287 14.344C120.751 13.512 121.383 12.856 122.183 12.376C122.983 11.88 123.863 11.632 124.823 11.632C125.511 11.632 126.127 11.784 126.671 12.088C127.215 12.376 127.647 12.768 127.967 13.264C128.303 13.76 128.471 14.32 128.471 14.944C128.471 15.552 128.223 15.856 127.727 15.856H122.927C122.703 15.856 122.535 15.92 122.423 16.048C122.327 16.176 122.279 16.392 122.279 16.696C122.279 17.304 122.415 17.864 122.687 18.376C122.959 18.872 123.327 19.264 123.791 19.552C124.255 19.84 124.791 19.984 125.399 19.984C125.863 19.984 126.287 19.896 126.671 19.72C127.071 19.544 127.463 19.304 127.847 19C127.911 18.952 127.967 18.912 128.015 18.88C128.079 18.832 128.135 18.808 128.183 18.808C128.343 18.808 128.423 18.912 128.423 19.12C128.423 19.296 128.359 19.536 128.231 19.84C128.071 20.24 127.799 20.64 127.415 21.04C127.047 21.424 126.583 21.736 126.023 21.976C125.463 22.216 124.823 22.336 124.103 22.336ZM122.927 14.848H124.367C124.815 14.848 125.127 14.84 125.303 14.824C125.479 14.808 125.639 14.776 125.783 14.728C125.863 14.696 125.927 14.616 125.975 14.488C126.023 14.36 126.047 14.216 126.047 14.056C126.047 13.624 125.895 13.272 125.591 13C125.303 12.728 124.943 12.592 124.511 12.592C124.175 12.592 123.855 12.688 123.551 12.88C123.263 13.056 123.023 13.296 122.831 13.6C122.655 13.888 122.575 14.192 122.591 14.512C122.591 14.736 122.703 14.848 122.927 14.848Z" fill="#1D1F2C"/>
<path d="M132.143 22.336C131.711 22.336 131.311 22.232 130.943 22.024C130.575 21.816 130.279 21.544 130.055 21.208C129.847 20.872 129.743 20.504 129.743 20.104C129.743 19.56 129.911 19.104 130.247 18.736C130.599 18.368 131.111 18.04 131.783 17.752L133.919 16.816C134.239 16.672 134.431 16.544 134.495 16.432C134.575 16.32 134.615 16.112 134.615 15.808L134.639 14.44C134.655 13.992 134.575 13.64 134.399 13.384C134.223 13.112 133.959 12.976 133.607 12.976C133.399 12.976 133.191 13.024 132.983 13.12C132.775 13.2 132.615 13.296 132.503 13.408C132.455 13.472 132.415 13.552 132.383 13.648C132.367 13.728 132.359 13.816 132.359 13.912C132.359 14.008 132.367 14.128 132.383 14.272C132.399 14.4 132.407 14.512 132.407 14.608C132.407 14.704 132.279 14.832 132.023 14.992C131.767 15.136 131.471 15.272 131.135 15.4C130.799 15.512 130.511 15.568 130.271 15.568C130.159 15.568 130.055 15.52 129.959 15.424C129.879 15.328 129.839 15.208 129.839 15.064C129.839 14.808 129.927 14.56 130.103 14.32C130.279 14.064 130.567 13.776 130.967 13.456C131.383 13.104 131.839 12.792 132.335 12.52C132.831 12.248 133.319 12.032 133.799 11.872C134.295 11.712 134.711 11.632 135.047 11.632C135.911 11.632 136.599 11.912 137.111 12.472C137.623 13.016 137.863 13.744 137.831 14.656L137.711 19.504C137.695 19.872 137.759 20.184 137.903 20.44C138.047 20.696 138.223 20.824 138.431 20.824C138.735 20.824 138.999 20.72 139.223 20.512C139.271 20.464 139.319 20.44 139.367 20.44C139.447 20.44 139.511 20.464 139.559 20.512C139.623 20.56 139.655 20.624 139.655 20.704C139.655 20.896 139.511 21.144 139.223 21.448C138.919 21.736 138.599 21.952 138.263 22.096C137.927 22.256 137.575 22.336 137.207 22.336C136.311 22.336 135.567 21.88 134.975 20.968H134.927C134.399 21.448 133.919 21.792 133.487 22C133.071 22.224 132.623 22.336 132.143 22.336ZM133.583 20.776C133.759 20.776 133.903 20.752 134.015 20.704C134.127 20.64 134.239 20.544 134.351 20.416C134.399 20.352 134.439 20.272 134.471 20.176C134.503 20.064 134.519 19.936 134.519 19.792L134.591 18.064C134.591 17.904 134.567 17.8 134.519 17.752C134.471 17.704 134.415 17.68 134.351 17.68C134.319 17.68 134.279 17.688 134.231 17.704C134.183 17.72 134.127 17.744 134.063 17.776C133.599 18 133.255 18.232 133.031 18.472C132.807 18.696 132.695 19.064 132.695 19.576C132.695 20.04 132.791 20.36 132.983 20.536C133.175 20.696 133.375 20.776 133.583 20.776Z" fill="#1D1F2C"/>
<path d="M140.434 22.072C140.114 22.072 139.954 21.96 139.954 21.736C139.954 21.608 140.002 21.512 140.098 21.448C140.194 21.368 140.33 21.304 140.506 21.256C140.746 21.176 140.954 21.088 141.13 20.992C141.322 20.896 141.418 20.672 141.418 20.32V8.8C141.418 8.352 141.362 7.976 141.25 7.672C141.138 7.352 140.882 7.152 140.482 7.072C140.306 7.04 140.218 6.92 140.218 6.712C140.218 6.504 140.298 6.384 140.458 6.352C140.858 6.272 141.29 6.16 141.754 6.016C142.234 5.856 142.69 5.696 143.122 5.536C143.554 5.36 143.89 5.232 144.13 5.152C144.258 5.104 144.362 5.08 144.442 5.08C144.538 5.08 144.602 5.112 144.634 5.176C144.666 5.224 144.682 5.288 144.682 5.368C144.682 5.496 144.658 5.712 144.61 6.016C144.578 6.32 144.554 6.656 144.538 7.024L144.562 16C144.562 16.192 144.634 16.288 144.778 16.288C144.826 16.288 144.882 16.272 144.946 16.24C145.026 16.192 145.098 16.144 145.162 16.096C145.754 15.584 146.282 15.064 146.746 14.536C147.21 14.008 147.522 13.624 147.682 13.384C147.746 13.288 147.794 13.208 147.826 13.144C147.874 13.08 147.898 13.024 147.898 12.976C147.898 12.896 147.834 12.816 147.706 12.736C147.578 12.64 147.386 12.576 147.13 12.544C146.938 12.512 146.842 12.424 146.842 12.28C146.842 12.136 146.898 12.048 147.01 12.016C147.138 11.968 147.258 11.944 147.37 11.944H148.546C148.834 11.944 149.21 11.936 149.674 11.92C150.138 11.888 150.594 11.848 151.042 11.8C151.49 11.752 151.81 11.728 152.002 11.728C152.178 11.728 152.266 11.816 152.266 11.992C152.266 12.12 152.218 12.232 152.122 12.328C152.026 12.408 151.89 12.464 151.714 12.496C151.442 12.56 151.122 12.672 150.754 12.832C150.386 12.992 150.018 13.176 149.65 13.384C149.378 13.528 149.082 13.712 148.762 13.936C148.458 14.144 148.154 14.368 147.85 14.608C147.562 14.848 147.298 15.08 147.058 15.304C146.978 15.384 146.938 15.472 146.938 15.568C146.938 15.616 146.954 15.664 146.986 15.712C147.018 15.744 147.05 15.784 147.082 15.832C147.466 16.328 147.834 16.816 148.186 17.296C148.538 17.776 148.89 18.24 149.242 18.688C149.594 19.12 149.954 19.552 150.322 19.984C150.594 20.272 150.922 20.536 151.306 20.776C151.69 21.016 152.01 21.184 152.266 21.28C152.394 21.328 152.53 21.384 152.674 21.448C152.834 21.512 152.914 21.608 152.914 21.736C152.914 21.96 152.738 22.072 152.386 22.072C151.426 22.072 150.482 22.056 149.554 22.024C148.642 22.008 147.786 22 146.986 22C146.666 22 146.506 21.888 146.506 21.664C146.506 21.536 146.554 21.44 146.65 21.376C146.746 21.312 146.874 21.248 147.034 21.184C147.178 21.136 147.274 21.08 147.322 21.016C147.386 20.952 147.426 20.88 147.442 20.8C147.442 20.736 147.41 20.664 147.346 20.584C147.298 20.488 147.234 20.384 147.154 20.272L144.826 17.056C144.778 17.024 144.738 17.008 144.706 17.008C144.61 17.024 144.562 17.08 144.562 17.176C144.562 17.416 144.562 17.664 144.562 17.92C144.562 18.176 144.562 18.424 144.562 18.664C144.562 18.92 144.562 19.2 144.562 19.504C144.562 19.792 144.562 20.072 144.562 20.344C144.562 20.616 144.618 20.816 144.73 20.944C144.858 21.056 145.042 21.152 145.282 21.232C145.41 21.28 145.522 21.344 145.618 21.424C145.73 21.488 145.786 21.584 145.786 21.712C145.786 21.824 145.738 21.912 145.642 21.976C145.562 22.04 145.466 22.072 145.354 22.072C145.034 22.072 144.738 22.056 144.466 22.024C144.21 22.008 143.962 21.992 143.722 21.976C143.482 21.96 143.218 21.952 142.93 21.952C142.658 21.952 142.386 21.96 142.114 21.976C141.858 21.992 141.594 22.008 141.322 22.024C141.05 22.056 140.754 22.072 140.434 22.072Z" fill="#1D1F2C"/>
<path d="M17.79 10.47V17.79C17.79 20.12 15.9 22 13.58 22H6.21C3.89 22 2 20.11 2 17.79V10.47C2 8.14 3.89 6.26 6.21 6.26H13.58C15.9 6.26 17.79 8.15 17.79 10.47Z" stroke="#752A03" stroke-width="1.5" stroke-linecap="round" stroke-linejoin="round"/>
<path d="M5.5 4V2.25" stroke="#752A03" stroke-width="1.5" stroke-linecap="round" stroke-linejoin="round"/>
<path d="M9.5 4V2.25" stroke="#752A03" stroke-width="1.5" stroke-linecap="round" stroke-linejoin="round"/>
<path d="M13.5 4V2.25" stroke="#752A03" stroke-width="1.5" stroke-linecap="round" stroke-linejoin="round"/>
<path d="M22 13.16C22 15.48 20.11 17.37 17.79 17.37V8.95C20.11 8.95 22 10.83 22 13.16Z" stroke="#752A03" stroke-width="1.5" stroke-linecap="round" stroke-linejoin="round"/>
<path d="M2 12H17.51" stroke="#752A03" stroke-width="1.5" stroke-linecap="round" stroke-linejoin="round"/>
</svg>
